# xmcd
#
# Track frame offsets: 
#        150
#        13609
#        26248
#        38621
#        53800
#        66993
#        75384
#        93825
#        109310
#        127218
#        149444
#        166217
#
# Disc length: 2474 seconds
#
# Revision: 0
# Processed by: cddbd v1.5.2PL0 Copyright (c) Steve Scherf et al.
# Submitted via: ExactAudioCopy v0.95b4
#
DISCID=9f09a80c
DTITLE=J.Tex - Misery
DYEAR=2009
DGENRE=Southern Rock
TTITLE0=Misery
TTITLE1=Day By Day
TTITLE2=What a Bummer
TTITLE3=Newsman In Town
TTITLE4=Wabash Cannonball
TTITLE5=Good Friends
TTITLE6=Brung U Down, Down
TTITLE7=Black and Blue Blues
TTITLE8=One of These Days
TTITLE9=Union Army
TTITLE10=Ain't Got No Home
TTITLE11=Omie Wise
EXTD=
EXTT0=
EXTT1=
EXTT2=
EXTT3=
EXTT4=
EXTT5=
EXTT6=
EXTT7=
EXTT8=
EXTT9=
EXTT10=
EXTT11=
PLAYORDER=
